<?xml version="1.0" encoding="UTF-8" standalone="no"?>
<svg
   xmlns:dc="http://purl.org/dc/elements/1.1/"
   xmlns:cc="http://creativecommons.org/ns#"
   xmlns:rdf="http://www.w3.org/1999/02/22-rdf-syntax-ns#"
   xmlns:svg="http://www.w3.org/2000/svg"
   xmlns="http://www.w3.org/2000/svg"
   xmlns:sodipodi="http://sodipodi.sourceforge.net/DTD/sodipodi-0.dtd"
   xmlns:inkscape="http://www.inkscape.org/namespaces/inkscape"
   width="200"
   height="38"
   viewBox="0 0 200 38"
   version="1.1"
   preserveAspectRatio="xMidYMid"
   id="svg18"
   sodipodi:docname="client-logo-grey.svg"
   inkscape:version="1.0.1 (3bc2e813f5, 2020-09-07)">
  <metadata
     id="metadata24">
    <rdf:RDF>
      <cc:Work
         rdf:about="">
        <dc:format>image/svg+xml</dc:format>
        <dc:type
           rdf:resource="http://purl.org/dc/dcmitype/StillImage" />
        <dc:title />
      </cc:Work>
    </rdf:RDF>
  </metadata>
  <defs
     id="defs22" />
  <sodipodi:namedview
     pagecolor="#ffffff"
     bordercolor="#666666"
     borderopacity="1"
     objecttolerance="10"
     gridtolerance="10"
     guidetolerance="10"
     inkscape:pageopacity="0"
     inkscape:pageshadow="2"
     inkscape:window-width="1024"
     inkscape:window-height="706"
     id="namedview20"
     showgrid="false"
     inkscape:zoom="2.2375815"
     inkscape:cx="92.002057"
     inkscape:cy="66.719615"
     inkscape:window-x="-8"
     inkscape:window-y="-8"
     inkscape:window-maximized="1"
     inkscape:current-layer="svg18"
     inkscape:document-rotation="0" />
  <g
     id="g16"
     transform="matrix(0.39107824,0,0,0.39107824,0.19463481,0)">
    <path
       d="M 65.898014,9.7650968 C 63.324262,8.3365497 55.946474,9.2198376 47.085452,11.962763 31.577384,22.563178 18.488924,38.180297 17.575575,63.258703 c -0.166296,0.599625 -1.6959,-0.08155 -1.998431,-0.267033 -4.187782,-8.026663 -5.8469054,-16.478661 -2.350211,-28.67136 0.651753,-1.085082 -1.479075,-2.420887 -1.862196,-2.039366 -0.76752,0.7688 -3.9671205,4.17723 -6.0921923,7.863246 C -5.2610319,58.416929 1.6274628,81.830136 20.056585,92.076532 38.481869,102.33892 61.748927,95.719056 72.008115,77.288335 83.876857,56.01587 72.856225,13.651308 65.898334,9.7657364 Z"
       fill="#82b541"
       id="path2"
       style="fill:#999999" />
    <path
       d="m 131.85039,19.974396 c -21.84682,0 -37.704431,16.241369 -37.704431,38.619063 0,22.561259 15.816351,38.318451 38.465561,38.318451 11.44021,0 20.49759,-3.577284 27.70076,-10.941322 2.1513,-2.323028 2.38284,-4.561629 2.38284,-5.417414 0,-3.64796 -2.71287,-6.297824 -6.45069,-6.297824 -1.88395,0 -3.45992,0.711556 -5.26743,2.382831 -4.07873,3.800505 -9.45009,7.682878 -18.36548,7.682878 -12.39737,0 -22.47971,-9.307782 -23.11483,-21.260632 h 49.34196 c 5.3656,0 7.97197,-2.508512 7.97197,-7.666888 0,-1.518731 0,-2.614686 -0.30541,-4.776854 -2.65817,-19.186089 -15.61168,-30.639731 -34.65354,-30.639731 z m 0,11.980032 c 11.84636,0 19.44801,7.549522 19.91683,19.734227 h -42.25519 c 1.10939,-11.276792 10.64391,-19.734227 22.33772,-19.734227 z"
       fill="#000000"
       id="path4"
       style="fill:#999999" />
    <path
       d="m 213.9271,19.974396 c -9.92436,0 -19.75054,5.706513 -23.58942,13.63212 v -4.898059 c 0,-7.587897 -5.88081,-7.972297 -7.05863,-7.972297 -3.48454,0 -7.20861,2.094051 -7.20861,7.972297 v 59.159825 c 0,7.879556 6.25976,8.277707 7.51402,8.277707 1.25426,0 7.5169,-0.398151 7.5169,-8.277707 V 56.154344 c 0,-13.798736 7.81943,-23.436553 19.01436,-23.436553 10.84314,0 16.116,7.115873 16.116,21.756962 v 33.393529 c 0,7.879556 6.26265,8.277707 7.51691,8.277707 1.25425,0 7.51402,-0.398151 7.51402,-8.277707 V 49.754503 c 0,-14.395802 -7.18143,-29.77563 -27.33555,-29.77563 z"
       fill="#000000"
       id="path6"
       style="fill:#999999" />
    <path
       d="m 309.27231,20.737439 c -3.47335,0 -5.99242,2.025934 -7.49228,6.011923 l -20.56443,51.71168 -20.40741,-51.71168 c -1.59772,-4.045792 -4.09791,-6.011923 -7.64514,-6.011923 -4.14397,0 -7.51658,3.233499 -7.51658,7.208934 0,0.984025 0.11161,2.260028 0.94341,4.253022 l 23.63291,55.801924 c 2.81648,6.731793 7.44846,8.14435 10.83995,8.14435 3.38924,0 8.0241,-1.412557 10.84602,-8.141152 l 23.78673,-56.11213 c 0.81261,-1.968369 0.93829,-3.413546 0.93829,-4.097599 0,-4.021486 -3.16826,-7.05639 -7.36147,-7.05639 z"
       fill="#000000"
       id="path8"
       style="fill:#999999" />
    <path
       d="m 352.9634,19.974396 c -9.61351,0 -18.56728,2.677367 -25.20857,7.533212 -2.25235,1.553909 -3.3483,3.492537 -3.3483,5.930053 0,3.356303 2.56287,5.987298 5.84019,5.987298 1.41767,0 3.00452,-0.564447 4.46025,-1.584289 5.70939,-3.805942 11.075,-5.580832 16.88225,-5.580832 11.11305,0 17.49274,5.651827 17.49274,15.508067 v 1.633219 c -24.94696,0.02718 -50.32055,3.04002 -50.32055,24.742616 0,15.619678 13.34846,22.613067 26.57699,22.613067 10.53518,0 18.94912,-4.174351 24.34735,-12.078531 v 3.800825 c 0,5.660142 3.80082,7.667208 7.06182,7.667208 0.68661,0 6.75034,-0.215546 6.75034,-7.667208 V 48.679975 c 0,-17.978204 -11.41782,-28.709417 -30.53579,-28.709417 z m 12.95638,40.493092 h 3.1625 v 3.462476 c 0,12.664405 -8.06472,20.846491 -20.54076,20.846491 -3.38636,0 -14.43929,-0.787988 -14.43929,-10.938444 -3.2e-4,-11.985469 18.15793,-13.370523 31.81755,-13.370523 z"
       fill="#000000"
       id="path10"
       style="fill:#999999" />
    <path
       d="m 422.64785,34.394503 c 6.57637,0 6.90896,-5.117441 6.90896,-6.14272 0,-3.042899 -1.81583,-6.295586 -6.90896,-6.295586 H 409.12478 V 8.2777064 C 409.12478,2.1676052 405.16053,0 401.7633,0 c -1.25426,0 -7.51403,0.39815116 -7.51403,8.2777064 V 73.23231 c 0,14.989991 7.3941,22.913039 21.38632,22.913039 3.62045,0 7.14881,-0.640879 9.45489,-1.715088 2.64506,-1.319495 4.16092,-3.489659 4.16092,-5.9518 0,-3.473349 -2.51939,-5.992415 -5.99274,-5.992415 -0.67094,0 -1.6249,0.166296 -2.67736,0.468827 -1.28688,0.322039 -2.15929,0.447081 -3.11358,0.447081 -5.69276,0 -8.34294,-3.716078 -8.34294,-11.69637 V 34.388107 h 13.52307 z"
       fill="#000000"
       id="path12"
       style="fill:#999999" />
    <path
       d="m 472.34478,19.974396 c -22.73331,0 -39.22668,16.113449 -39.22668,38.312055 0,10.807965 3.99686,20.658448 11.24929,27.735945 7.19774,7.020572 17.13297,10.886956 27.97867,10.886956 22.44965,0 39.38019,-16.604023 39.38019,-38.622261 -3.2e-4,-22.198926 -16.56597,-38.312055 -39.38019,-38.312055 z m 0,64.190281 c -15.58961,0 -23.74196,-13.019063 -23.74196,-25.879825 0,-17.672795 12.30719,-25.721204 23.74196,-25.721204 11.43478,0 23.74197,8.048409 23.74197,25.721204 0,17.782166 -12.30719,25.879825 -23.74197,25.879825 z"
       fill="#000000"
       id="path14"
       style="fill:#999999" />
  </g>
</svg>
